<mxfile host="65bd71144e">
    <diagram id="fOeOmEoRDyNkwqBNOP7G" name="Page-1">
        <mxGraphModel dx="596" dy="-174" grid="1" gridSize="10" guides="1" tooltips="1" connect="1" arrows="1" fold="1" page="1" pageScale="1" pageWidth="850" pageHeight="1100" math="0" shadow="0">
            <root>
                <mxCell id="0"/>
                <mxCell id="1" parent="0"/>
                <mxCell id="5" value="ObstacleSpawner" style="shape=umlLifeline;perimeter=lifelinePerimeter;whiteSpace=wrap;html=1;container=1;collapsible=0;recursiveResize=0;outlineConnect=0;" vertex="1" parent="1">
                    <mxGeometry x="320" y="1300" width="120" height="350" as="geometry"/>
                </mxCell>
                <mxCell id="2" value="" style="html=1;points=[];perimeter=orthogonalPerimeter;" vertex="1" parent="5">
                    <mxGeometry x="50" y="80" width="20" height="240" as="geometry"/>
                </mxCell>
                <mxCell id="3" value="KillPlayer &quot;sonic&quot;" style="html=1;verticalAlign=bottom;endArrow=block;entryX=0;entryY=0;" edge="1" parent="5" target="2">
                    <mxGeometry relative="1" as="geometry">
                        <mxPoint x="-60" y="80" as="sourcePoint"/>
                    </mxGeometry>
                </mxCell>
                <mxCell id="6" value="bat: Bat" style="shape=umlLifeline;perimeter=lifelinePerimeter;whiteSpace=wrap;html=1;container=1;collapsible=0;recursiveResize=0;outlineConnect=0;" vertex="1" parent="1">
                    <mxGeometry x="500" y="1300" width="100" height="350" as="geometry"/>
                </mxCell>
                <mxCell id="11" value="" style="html=1;points=[];perimeter=orthogonalPerimeter;" vertex="1" parent="6">
                    <mxGeometry x="40" y="100" width="20" height="40" as="geometry"/>
                </mxCell>
                <mxCell id="7" value="crab: Crab" style="shape=umlLifeline;perimeter=lifelinePerimeter;whiteSpace=wrap;html=1;container=1;collapsible=0;recursiveResize=0;outlineConnect=0;" vertex="1" parent="1">
                    <mxGeometry x="660" y="1300" width="100" height="350" as="geometry"/>
                </mxCell>
                <mxCell id="19" value="" style="html=1;points=[];perimeter=orthogonalPerimeter;" vertex="1" parent="7">
                    <mxGeometry x="40" y="200" width="20" height="120" as="geometry"/>
                </mxCell>
                <mxCell id="8" value="sonic: Sonic" style="shape=umlLifeline;perimeter=lifelinePerimeter;whiteSpace=wrap;html=1;container=1;collapsible=0;recursiveResize=0;outlineConnect=0;" vertex="1" parent="1">
                    <mxGeometry x="810" y="1300" width="100" height="350" as="geometry"/>
                </mxCell>
                <mxCell id="15" value="" style="rounded=0;whiteSpace=wrap;html=1;" vertex="1" parent="8">
                    <mxGeometry x="40" y="100" width="20" height="30" as="geometry"/>
                </mxCell>
                <mxCell id="21" value="" style="rounded=0;whiteSpace=wrap;html=1;" vertex="1" parent="8">
                    <mxGeometry x="40" y="200" width="20" height="120" as="geometry"/>
                </mxCell>
                <mxCell id="22" value="IsColliding(sonic)" style="html=1;verticalAlign=bottom;endArrow=block;" edge="1" parent="8">
                    <mxGeometry relative="1" as="geometry">
                        <mxPoint x="-90" y="210" as="sourcePoint"/>
                        <mxPoint x="40" y="210" as="targetPoint"/>
                    </mxGeometry>
                </mxCell>
                <mxCell id="23" value="True" style="html=1;verticalAlign=bottom;endArrow=open;dashed=1;endSize=8;" edge="1" parent="8">
                    <mxGeometry relative="1" as="geometry">
                        <mxPoint x="-90" y="227" as="targetPoint"/>
                        <mxPoint x="40" y="227" as="sourcePoint"/>
                    </mxGeometry>
                </mxCell>
                <mxCell id="26" value="" style="html=1;points=[];perimeter=orthogonalPerimeter;" vertex="1" parent="8">
                    <mxGeometry x="50" y="270" width="20" height="40" as="geometry"/>
                </mxCell>
                <mxCell id="27" value="Dead" style="edgeStyle=orthogonalEdgeStyle;html=1;align=left;spacingLeft=2;endArrow=block;rounded=0;entryX=1;entryY=0;exitX=1.114;exitY=0.184;exitDx=0;exitDy=0;exitPerimeter=0;" edge="1" target="26" parent="8">
                    <mxGeometry relative="1" as="geometry">
                        <mxPoint x="62.27999999999997" y="251.55999999999995" as="sourcePoint"/>
                        <Array as="points">
                            <mxPoint x="62" y="250"/>
                            <mxPoint x="95" y="250"/>
                            <mxPoint x="95" y="270"/>
                        </Array>
                    </mxGeometry>
                </mxCell>
                <mxCell id="10" value="Loop to &quot;bat&quot;" style="html=1;verticalAlign=bottom;endArrow=block;entryX=0.017;entryY=0.2;entryDx=0;entryDy=0;entryPerimeter=0;" edge="1" parent="1" target="11">
                    <mxGeometry x="0.001" width="80" relative="1" as="geometry">
                        <mxPoint x="390" y="1408" as="sourcePoint"/>
                        <mxPoint x="560" y="1550" as="targetPoint"/>
                        <mxPoint as="offset"/>
                    </mxGeometry>
                </mxCell>
                <mxCell id="12" value="IsColliding &quot;sonic&quot;" style="html=1;verticalAlign=bottom;endArrow=block;exitX=1.217;exitY=0.225;exitDx=0;exitDy=0;exitPerimeter=0;" edge="1" parent="1" source="11">
                    <mxGeometry relative="1" as="geometry">
                        <mxPoint x="470" y="1400" as="sourcePoint"/>
                        <mxPoint x="850" y="1410" as="targetPoint"/>
                    </mxGeometry>
                </mxCell>
                <mxCell id="13" value="False" style="html=1;verticalAlign=bottom;endArrow=open;dashed=1;endSize=8;entryX=1.117;entryY=0.683;entryDx=0;entryDy=0;entryPerimeter=0;" edge="1" parent="1" target="11">
                    <mxGeometry relative="1" as="geometry">
                        <mxPoint x="470" y="1476" as="targetPoint"/>
                        <mxPoint x="850" y="1427" as="sourcePoint"/>
                    </mxGeometry>
                </mxCell>
                <mxCell id="20" value="Loop to &quot;crab&quot;" style="html=1;verticalAlign=bottom;endArrow=block;entryX=0.017;entryY=0.2;entryDx=0;entryDy=0;entryPerimeter=0;" edge="1" parent="1" target="19" source="2">
                    <mxGeometry x="0.001" width="80" relative="1" as="geometry">
                        <mxPoint x="550" y="1508" as="sourcePoint"/>
                        <mxPoint x="720" y="1650" as="targetPoint"/>
                        <mxPoint as="offset"/>
                    </mxGeometry>
                </mxCell>
                <mxCell id="24" value="KillPlayer &quot;sonic&quot;" style="html=1;verticalAlign=bottom;endArrow=block;" edge="1" parent="1" source="19">
                    <mxGeometry width="80" relative="1" as="geometry">
                        <mxPoint x="720" y="1545" as="sourcePoint"/>
                        <mxPoint x="850" y="1550" as="targetPoint"/>
                    </mxGeometry>
                </mxCell>
            </root>
        </mxGraphModel>
    </diagram>
</mxfile>